<svg xmlns="http://www.w3.org/2000/svg" viewBox="0 0 512 512">
  <defs>
    <linearGradient id="bg" x1="0%" y1="0%" x2="100%" y2="100%">
      <stop offset="0%" stop-color="#0f172a" />
      <stop offset="100%" stop-color="#1e293b" />
    </linearGradient>
    <linearGradient id="accent" x1="0%" y1="0%" x2="100%" y2="100%">
      <stop offset="0%" stop-color="#2dd4bf" />
      <stop offset="100%" stop-color="#38bdf8" />
    </linearGradient>
  </defs>
  <rect width="512" height="512" rx="128" fill="url(#bg)" />
  <g transform="translate(256 256)">
    <circle r="120" fill="none" stroke="url(#accent)" stroke-width="40" />
    <circle r="44" fill="#f8fafc" />
    <g fill="#f8fafc">
      <rect x="-16" y="-188" width="32" height="56" rx="16" />
      <rect x="-16" y="132" width="32" height="56" rx="16" />
      <rect x="132" y="-16" width="56" height="32" rx="16" />
      <rect x="-188" y="-16" width="56" height="32" rx="16" />
      <rect x="104" y="-148" width="32" height="56" rx="16" transform="rotate(45)" />
      <rect x="-136" y="92" width="32" height="56" rx="16" transform="rotate(45)" />
      <rect x="-136" y="-148" width="32" height="56" rx="16" transform="rotate(-45)" />
      <rect x="104" y="92" width="32" height="56" rx="16" transform="rotate(-45)" />
    </g>
    <path
      d="M-26 -108h56c49 0 86 33 86 77 0 46-37 79-86 79h-34v60h-50V-108zm50 41v74h12c18 0 31-15 31-36s-13-38-31-38H24z"
      fill="#f8fafc"
    />
  </g>
</svg>
